<svg width="42" height="42" viewBox="0 0 42 42" fill="none" xmlns="http://www.w3.org/2000/svg">
<path d="M41.876 23.2803C40.7394 33.8056 31.8274 42 21 42C9.40202 42 0 32.598 0 21C0 20.959 0.00074138 20.9179 0.000976562 20.877L11.2021 26.3535C11.2568 28.0452 12.6447 29.4002 14.3496 29.4004C16.0893 29.4004 17.5 27.9897 17.5 26.25C17.5 26.1482 17.4938 26.0476 17.4844 25.9482L26.5996 18.4287C27.177 19.1429 28.0599 19.5996 29.0498 19.5996C30.191 19.5996 31.1867 18.9907 31.7393 18.082L41.876 23.2803ZM21 0C32.598 0 42 9.40202 42 21C42 21.0319 41.9982 21.0638 41.998 21.0957L32.1748 16.0586C31.982 14.5037 30.6569 13.2998 29.0498 13.2998C27.3228 13.2999 25.9207 14.6899 25.9004 16.4121L16.6191 24.0693C16.046 23.4731 15.242 23.0996 14.3496 23.0996C13.2955 23.0997 12.3647 23.6198 11.793 24.415L0.124023 18.71C1.26504 8.18927 10.1759 0 21 0Z" fill="#605BFF"/>
</svg>
