<?xml version="1.0" standalone="no"?>
<!DOCTYPE svg PUBLIC "-//W3C//DTD SVG 1.1//EN" "http://www.w3.org/Graphics/SVG/1.1/DTD/svg11.dtd" >
<svg xmlns="http://www.w3.org/2000/svg">
<metadata></metadata>
<defs>
<font id="true_boldregular" horiz-adv-x="0" >
<font-face units-per-em="2048" ascent="1638" descent="-410" />
<missing-glyph horiz-adv-x="614" />
<glyph unicode="&#xd;" horiz-adv-x="614" />
<glyph unicode=" "  horiz-adv-x="614" />
<glyph unicode="&#x09;" horiz-adv-x="614" />
<glyph unicode="&#xa0;" horiz-adv-x="614" />
<glyph unicode="!" horiz-adv-x="375" d="M150 268l-46 418v279h168v-279l-43 -418h-79zM98 168h181v-168h-181v168z" />
<glyph unicode="&#x22;" horiz-adv-x="600" d="M350 965h137v-381h-137v381zM113 965h137v-381h-137v381z" />
<glyph unicode="#" horiz-adv-x="752" d="M555 385h115v-100h-129l-41 -285h-109l41 285h-149l-41 -285h-109l39 285h-127v100h143l25 176h-127v101h139l39 284h111l-41 -284h149l39 284h111l-41 -284h117v-101h-131zM297 385h149l25 176h-152z" />
<glyph unicode="$" horiz-adv-x="752" d="M729 281q0 -146 -92 -226q-85 -67 -229 -73v-107h-58v107q-149 4 -240 83q-90 79 -87 228h153q0 -189 174 -195v328q-143 39 -209 90q-98 77 -98 207q0 123 92 197q85 67 215 67v107h58v-107q130 0 210 -63q87 -72 87 -199h-154q-6 141 -143 141v-284q151 -40 223 -93 q98 -75 98 -208zM350 866q-153 0 -153 -133q0 -100 153 -137v270zM573 260q0 109 -165 154v-316q165 10 165 162z" />
<glyph unicode="%" horiz-adv-x="1352" d="M1241 250q0 -264 -225 -264q-228 0 -228 264q0 117 54 188q62 80 174 80t172 -80q53 -71 53 -188zM352 -29l525 1008h102l-522 -1008h-105zM563 696q0 -268 -227 -268q-225 0 -225 268q0 115 53 189q59 80 172 80q112 0 174 -80q53 -74 53 -189zM1118 250q0 182 -104 182 q-103 0 -103 -182q0 -180 103 -180q104 0 104 180zM440 696q0 181 -104 181q-103 0 -103 -181q0 -182 103 -182q104 0 104 182z" />
<glyph unicode="&#x26;" horiz-adv-x="877" d="M618 109q-102 -123 -270 -123q-135 0 -221 74q-84 75 -84 208q0 168 221 279q-96 124 -96 211q0 102 67 165q67 64 168 64q100 0 168 -57q74 -65 74 -172q0 -150 -174 -246l150 -180q22 58 28 129h135q-13 -144 -75 -236l186 -225h-188zM506 762q0 49 -27.5 79.5 t-70.5 30.5t-73 -29t-30 -77q0 -43 31 -86l57 -74q113 77 113 156zM346 446q-43 -26 -67 -41.5t-29 -19.5q-53 -47 -53 -121q0 -38 11.5 -68t32.5 -51t49.5 -32t61.5 -11q73 0 123 39q24 22 60 70z" />
<glyph unicode="'" horiz-adv-x="375" d="M119 965h137v-381h-137v381z" />
<glyph unicode="(" horiz-adv-x="375" d="M260 -254q-194 311 -194 619q0 323 194 622h127q-166 -295 -166 -622q0 -345 166 -619h-127v0z" />
<glyph unicode=")" horiz-adv-x="375" d="M309 365q0 -323 -194 -619h-121q162 291 162 619q0 340 -162 622h121q194 -311 194 -622z" />
<glyph unicode="*" horiz-adv-x="500" d="M416 594l-72 -51l-96 131l-90 -131l-76 51l94 127l-149 53l28 86l150 -57v162h92v-162l145 57l33 -86l-153 -53z" />
<glyph unicode="+" horiz-adv-x="811" d="M475 0h-139v272h-270v140h270v272h139v-272h270v-140h-270v-272z" />
<glyph unicode="," horiz-adv-x="375" d="M281 0q0 -78 -51 -135q-49 -58 -132 -74v82q93 22 88 127h-92v182h187v-182v0z" />
<glyph unicode="-" horiz-adv-x="526" d="M66 440h393v-145h-393v145z" />
<glyph unicode="." horiz-adv-x="375" d="M94 182h187v-182h-187v182z" />
<glyph unicode="/" horiz-adv-x="475" d="M-27 -18l385 1005h148l-389 -1005h-144z" />
<glyph unicode="0" horiz-adv-x="758" d="M705 473q0 -487 -328 -487q-326 0 -326 487q0 492 326 492q328 0 328 -492zM551 473q0 365 -174 365q-172 0 -172 -365q0 -364 172 -364q174 0 174 364z" />
<glyph unicode="1" horiz-adv-x="758" d="M346 668h-231v120q241 0 276 158h125v-946h-170v668z" />
<glyph unicode="2" horiz-adv-x="758" d="M702 674q0 -131 -108 -236q-20 -20 -73 -58t-138 -95q-123 -81 -143 -148h460v-137h-645q0 215 207 358q91 64 138 97t51 37q96 83 98 178q2 65 -31 108q-41 60 -129 60q-153 0 -162 -238h-155q0 162 86 263q85 102 239 102q157 0 240 -99q65 -80 65 -192z" />
<glyph unicode="3" horiz-adv-x="758" d="M711 270q0 -129 -98 -207q-98 -77 -236 -77q-160 0 -245 86t-89 239h156q-4 -88 43 -143q47 -59 135 -59q81 0 130.5 44.5t49.5 125.5q0 173 -248 159v117q211 -7 211 147q0 30 -11 55t-31 43t-47 28t-58 10q-76 0 -118 -58q-42 -55 -40 -137h-154q7 141 91 231 q84 91 223 91q123 0 205 -64q94 -70 94 -188q0 -154 -133 -203v-4q79 -13 125 -79q45 -65 45 -157z" />
<glyph unicode="4" horiz-adv-x="758" d="M586 0h-146v225h-405v152l405 569h146v-600h123v-121h-123v-225zM438 762l-284 -416h286v416h-2z" />
<glyph unicode="5" horiz-adv-x="758" d="M709 319q0 -131 -78 -225q-90 -108 -250 -108q-141 0 -231 69q-97 77 -101 213h154q16 -159 174 -159q176 0 176 208q0 86 -43 138q-50 59 -137 59q-120 0 -152 -86h-153l100 518h489v-137h-374l-47 -242l2 -2q64 72 174 72q137 0 217 -89t80 -229z" />
<glyph unicode="6" horiz-adv-x="758" d="M709 303q0 -139 -89 -228t-227 -89q-194 0 -276 139q-70 118 -70 350q0 199 78 330q96 160 281 160q114 0 196 -73t88 -185h-153q-15 131 -140 131q-174 0 -194 -326l2 -2q63 113 205 113q137 0 218 -91q81 -90 81 -229zM553 307q0 81 -43 136q-44 57 -123 57 q-82 0 -126 -56t-44 -137q0 -82 43 -137q46 -61 127 -61q79 0 125 61q41 56 41 137z" />
<glyph unicode="7" horiz-adv-x="758" d="M696 817q-319 -361 -352 -817h-170q29 429 367 809h-492v137h647v-129v0z" />
<glyph unicode="8" horiz-adv-x="758" d="M711 279q0 -136 -94 -215q-93 -78 -240 -78q-146 0 -240 78q-94 79 -94 215q0 187 174 231q-133 52 -133 197q0 121 76 189.5t217 68.5q143 0 219 -67t76 -191q0 -145 -133 -197q172 -43 172 -231zM526 698q0 69 -41.5 107.5t-107.5 38.5q-32 0 -59 -10t-47 -28.5 t-31 -46t-11 -61.5q0 -66 41 -102.5t107 -36.5t107.5 36.5t41.5 102.5zM557 279q0 78 -49.5 121.5t-130.5 43.5q-39 0 -71.5 -11.5t-56.5 -33.5t-37 -52.5t-13 -67.5q0 -41 13 -73.5t37 -55.5t56.5 -35.5t71.5 -12.5q40 0 73 12.5t57 35.5t37 55.5t13 73.5z" />
<glyph unicode="9" horiz-adv-x="758" d="M709 471q0 -200 -78 -330q-96 -155 -281 -155q-114 0 -196 70t-88 184h153q14 -131 139 -131q174 0 195 325l-2 2q-64 -112 -205 -112q-135 0 -217 87q-82 85 -82 230q0 141 88 232q89 92 238 92q336 0 336 -494zM539 643q0 82 -45 138q-45 57 -127 57q-80 0 -122 -57 q-42 -56 -42 -138q0 -85 39 -137q45 -62 125 -62q82 0 127 57q45 58 45 142z" />
<glyph unicode=":" horiz-adv-x="375" d="M94 684h187v-182h-187v182zM94 182h187v-182h-187v182z" />
<glyph unicode=";" horiz-adv-x="375" d="M94 684h187v-182h-187v182zM281 0q0 -78 -51 -135q-49 -58 -132 -74v82q93 22 88 127h-92v182h187v-182z" />
<glyph unicode="&#x3c;" horiz-adv-x="811" d="M61 391l689 303v-137l-506 -215l506 -215v-133l-689 299v98z" />
<glyph unicode="=" horiz-adv-x="811" d="M66 547h679v-137h-679v137zM66 274h679v-137h-679v137z" />
<glyph unicode="&#x3e;" horiz-adv-x="811" d="M61 127l506 215l-506 215v137l689 -303v-98l-689 -299v133z" />
<glyph unicode="?" horiz-adv-x="778" d="M717 727q0 -142 -115 -227q-34 -26 -54 -42t-28 -24q-41 -44 -49 -94v-51h-182v61q0 121 117 213q28 22 45 37t24 25q29 35 29 84q0 120 -115 120q-134 0 -139 -176h-199q4 148 93 241q88 93 235 93q174 0 264 -90q74 -74 74 -170zM268 209h213v-209h-213v209z" />
<glyph unicode="@" horiz-adv-x="1081" d="M1016 592q0 -184 -119 -303q-98 -101 -201 -101q-75 0 -80 80h-2q-69 -78 -151 -78q-83 0 -142 62q-57 63 -57 151q0 136 84 243q84 108 213 108q102 0 152 -99l24 78h94l-98 -356q-10 -36 -10 -60q0 -32 25 -32q64 0 120 86t56 204q0 148 -105 237q-104 89 -256 89 q-171 0 -280 -117q-109 -115 -109 -288q0 -195 112 -313q112 -117 287 -117q189 0 306 133h94q-136 -217 -404 -217q-213 0 -358 144t-145 374q0 205 146 346q145 141 351 141q185 0 319 -113t134 -282zM674 532q0 48 -32 83q-32 36 -75 36q-80 0 -134 -77t-54 -158 q0 -54 29.5 -88.5t78.5 -34.5q75 0 134 84q53 77 53 155z" />
<glyph unicode="A" horiz-adv-x="901" d="M641 256h-385l-90 -256h-169l363 965h181l370 -965h-180zM446 799l-145 -416h295l-145 416h-5z" />
<glyph unicode="B" horiz-adv-x="952" d="M901 268q0 -121 -84 -190q-92 -78 -270 -78h-445v965h469q287 0 287 -240q0 -143 -137 -205v-2q180 -41 180 -250zM690 694q0 133 -143 133h-275v-266h275q63 0 103 35t40 98zM733 291q0 147 -162 147h-299v-301h299q162 0 162 154z" />
<glyph unicode="C" horiz-adv-x="977" d="M924 369q-11 -173 -124 -279q-113 -105 -286 -105q-211 0 -340 142q-123 141 -123 356q0 212 123 355q129 149 340 149q168 0 280 -88q115 -88 130 -242h-170q-49 193 -240 193q-145 0 -223 -115q-70 -97 -70 -252q0 -154 70 -254q78 -114 223 -114q107 0 174 73 q60 68 72 181h164v0z" />
<glyph unicode="D" horiz-adv-x="977" d="M928 483q0 -211 -101 -342q-113 -141 -323 -141h-402v965h402q211 0 323 -142q101 -128 101 -340zM760 483q0 164 -62 244q-75 100 -260 100h-166v-690h166q185 0 260 101q62 80 62 245z" />
<glyph unicode="E" horiz-adv-x="852" d="M102 965h695v-146h-525v-252h486v-139h-486v-283h535v-145h-705v965z" />
<glyph unicode="F" horiz-adv-x="801" d="M272 567h437v-139h-437v-428h-170v965h668v-146h-498v-252z" />
<glyph unicode="G" horiz-adv-x="1026" d="M977 481q0 -215 -123 -356q-128 -140 -338 -140t-338 140q-121 139 -121 356q0 213 121 355q129 149 338 149q149 0 262 -80q106 -74 156 -203l-156 -43q-73 187 -262 187q-145 0 -223 -113q-70 -100 -70 -252q0 -154 70 -254q78 -114 223 -114q119 0 197 80 q67 70 86 186h-269v129h447v-27v0z" />
<glyph unicode="H" horiz-adv-x="977" d="M707 436h-439v-436h-170v965h170v-383h439v383h170v-965h-170v436z" />
<glyph unicode="I" horiz-adv-x="375" d="M102 965h170v-965h-170v965z" />
<glyph unicode="J" horiz-adv-x="586" d="M483 309q0 -127 -87 -218t-214 -91h-141v145h96q78 0 128 50q50 53 50 131v639h168v-656v0z" />
<glyph unicode="K" horiz-adv-x="926" d="M410 461l-138 -137v-324h-170v965h170v-439l430 439h207l-385 -385l412 -580h-211z" />
<glyph unicode="L" horiz-adv-x="776" d="M102 965h170v-820h490v-145h-660v965z" />
<glyph unicode="M" horiz-adv-x="1202" d="M940 745h-2l-268 -745h-140l-266 745h-4v-745h-160v965h238l266 -756h2l260 756h236v-965h-162v745z" />
<glyph unicode="N" horiz-adv-x="977" d="M260 709h-4v-709h-160v965h178l441 -711h2v711h162v-965h-179z" />
<glyph unicode="O" horiz-adv-x="1028" d="M977 483q0 -215 -123 -356q-129 -142 -340 -142t-340 142q-123 141 -123 356q0 212 123 355q129 149 340 149t340 -149q123 -143 123 -355zM807 483q0 155 -70 252q-78 115 -223 115t-223 -115q-70 -97 -70 -252q0 -154 70 -254q78 -114 223 -114t223 114q70 100 70 254z " />
<glyph unicode="P" horiz-adv-x="901" d="M856 666q0 -116 -59 -193q-84 -102 -269 -102h-256v-371h-170v965h426q328 0 328 -299zM688 668q0 159 -166 159h-250v-319h246q66 0 113 35q57 43 57 125z" />
<glyph unicode="Q" horiz-adv-x="1028" d="M977 483q0 -239 -137 -370l125 -109l-84 -85l-140 116q-103 -50 -227 -50q-211 0 -340 142q-123 141 -123 356q0 212 123 355q129 149 340 149t340 -149q123 -143 123 -355zM807 483q0 155 -70 252q-78 115 -223 115t-223 -115q-70 -97 -70 -252q0 -154 70 -254 q78 -114 223 -114q64 0 109 22l-99 86l82 92l117 -102q84 100 84 270z" />
<glyph unicode="R" horiz-adv-x="952" d="M575 397h-303v-397h-168v965h461q318 0 318 -285q0 -175 -154 -248l186 -432h-182zM715 680q0 147 -168 147h-275v-301h277q166 0 166 154z" />
<glyph unicode="S" horiz-adv-x="877" d="M831 281q0 -152 -120 -234q-107 -62 -265 -62q-176 0 -280 74q-119 91 -121 263h168q0 -207 246 -207q101 0 157 45q46 39 46 100q0 87 -80 119q-16 5 -86.5 25t-200.5 55q-213 57 -213 246q0 135 111 213q97 69 241 69q158 0 260 -78q111 -84 111 -229h-170 q-11 170 -207 170q-178 0 -178 -125q0 -94 114 -124q115 -30 279 -75q89 -26 141 -100q47 -68 47 -145z" />
<glyph unicode="T" horiz-adv-x="801" d="M793 958q0 -60 -39 -100q-39 -41 -101 -41l-168 2v-819h-170v819h-305v146h783v-7v0z" />
<glyph unicode="U" horiz-adv-x="977" d="M885 348q0 -180 -107 -272q-106 -91 -291 -91q-183 0 -289 90q-106 91 -106 273v617h45q123 0 123 -121v-441q0 -133 31 -188q51 -92 196 -92q146 0 197 92q31 55 31 188v562h170v-617v0z" />
<glyph unicode="V" horiz-adv-x="825" d="M315 0l-315 965h168l244 -764h2l248 764h172l-330 -965h-189z" />
<glyph unicode="W" horiz-adv-x="1276" d="M829 0l-192 737h-2l-199 -737h-174l-254 965h172l174 -738h2l195 738h174l188 -738h2l181 738h172l-267 -965h-172z" />
<glyph unicode="X" horiz-adv-x="877" d="M434 369l-246 -369h-188l338 500l-320 465h203l217 -340l230 340h188l-317 -465l342 -500h-207z" />
<glyph unicode="Y" horiz-adv-x="877" d="M522 0h-168v379l-355 586h189l254 -433l252 433h191l-363 -586v-379z" />
<glyph unicode="Z" horiz-adv-x="852" d="M31 137l563 682h-520v146h735v-127l-563 -693h575v-145h-790v137z" />
<glyph unicode="[" horiz-adv-x="399" d="M98 987h301v-121h-155v-996h155v-121h-301v1238z" />
<glyph unicode="\" horiz-adv-x="475" d="M-24 987h141l389 -1002h-148z" />
<glyph unicode="]" horiz-adv-x="399" d="M2 -130h156v996h-156v121h301v-1238h-301v121z" />
<glyph unicode="^" horiz-adv-x="811" d="M406 786l-154 -333h-139l243 493h99l243 -493h-139z" />
<glyph unicode="_" horiz-adv-x="676" d="M0 -93h676v-68h-676v68z" />
<glyph unicode="`" horiz-adv-x="326" d="M-32 987h173l123 -192h-110z" />
<glyph unicode="a" horiz-adv-x="752" d="M741 0q-25 -5 -49 -8t-49 -3q-102 0 -119 77q-86 -77 -241 -77q-101 0 -166 44q-74 56 -74 151q0 117 86 168q51 31 182 51q37 5 74 11l74 12q63 18 63 76q0 94 -145 94q-147 0 -154 -111h-153q12 232 317 232q114 0 191 -45q88 -55 88 -158v-358q0 -54 36 -54 q11 0 21 0.5t18 1.5v-104zM512 350q-29 -18 -83 -28q-54 -9 -105 -15q-127 -19 -127 -114q0 -48 51 -72q37 -19 92 -19q65 0 111 31q61 34 61 103v114z" />
<glyph unicode="b" horiz-adv-x="825" d="M776 346q0 -151 -74 -252q-80 -105 -227 -105q-182 0 -242 107h-2v-96h-145v965h154v-357h2q69 109 209 109q157 0 245 -109q80 -101 80 -262zM623 348q0 105 -52 175q-51 73 -141 73q-94 0 -145.5 -66.5t-51.5 -181.5q0 -110 52 -174q52 -72 145 -72q97 0 150 78 q43 64 43 168z" />
<glyph unicode="c" horiz-adv-x="752" d="M707 262q-45 -273 -320 -273q-161 0 -252 97q-88 97 -88 256q0 165 86 266q91 109 258 109q127 0 213 -62q92 -67 103 -190h-154q-18 131 -160 131q-192 0 -192 -254q0 -100 43 -164q49 -76 143 -76q144 0 166 160h154v0z" />
<glyph unicode="d" horiz-adv-x="825" d="M594 94h-4q-56 -105 -215 -105q-160 0 -246 101q-82 100 -82 264q0 180 94 277q83 86 209 86q166 0 232 -109h4v357h153v-965h-145v94zM590 350q0 115 -51 180.5t-142 65.5q-100 0 -153 -80q-43 -67 -43 -174q0 -98 47 -166q53 -74 147 -74q97 0 150 78q45 70 45 170z " />
<glyph unicode="e" horiz-adv-x="752" d="M201 309q0 -90 49 -148q50 -59 139 -59q131 0 170 113l135 -35q-16 -47 -45.5 -82.5t-69 -59.5t-88 -36.5t-102.5 -12.5q-160 0 -251 96q-91 97 -91 261q0 156 93 263q93 108 245 108q147 0 240 -105q94 -103 94 -250q0 -13 -1 -26t-3 -27h-514zM561 412q-4 76 -52 130 t-124 54q-79 0 -128 -52q-50 -53 -56 -132h360z" />
<glyph unicode="f" horiz-adv-x="426" d="M428 836q-30 8 -72 8q-75 0 -75 -74v-72h131v-114h-131v-584h-154v584h-115v114h115v60q0 207 192 207q76 0 109 -9v-120v0z" />
<glyph unicode="g" horiz-adv-x="801" d="M727 37q0 -306 -344 -306q-120 0 -203 47q-97 57 -108 170h153q21 -103 168 -103q180 0 180 171v107h-2q-71 -123 -211 -123q-157 0 -239 109q-74 98 -74 260q0 145 87 246q87 102 231 102q148 0 206 -115h2v96h154v-661zM573 365q0 96 -47 164q-46 67 -141 67 q-94 0 -143 -78q-41 -65 -41 -166q0 -96 43 -157q51 -74 141 -74q95 0 145 78q43 64 43 166z" />
<glyph unicode="h" horiz-adv-x="776" d="M541 438q0 158 -138 158q-75 0 -121 -54q-46 -52 -46 -130v-412h-154v965h154v-359h2q67 111 208 111q248 0 248 -238v-479h-153v438z" />
<glyph unicode="i" horiz-adv-x="326" d="M86 965h154v-146h-154v146zM86 698h154v-698h-154v698z" />
<glyph unicode="j" horiz-adv-x="348" d="M106 965h154v-146h-154v146zM260 33q0 -142 -83 -225t-211 -83h-31v141h7q164 0 164 197v635h154v-665z" />
<glyph unicode="k" horiz-adv-x="725" d="M332 340l-92 -90v-250h-154v965h154v-549l278 282h189l-269 -256l295 -442h-188z" />
<glyph unicode="l" horiz-adv-x="326" d="M86 965h154v-965h-154v965z" />
<glyph unicode="m" horiz-adv-x="1176" d="M940 408q0 100 -18 135q-27 53 -109 53q-147 0 -147 -186v-410h-156v449q0 147 -123 147q-64 0 -107 -49q-44 -50 -44 -131v-416h-154v698h145v-96h4q76 115 215 115q150 0 195 -115q85 115 219 115q236 0 236 -234v-483h-156v408z" />
<glyph unicode="n" horiz-adv-x="776" d="M541 438q0 158 -138 158q-75 0 -121 -54q-46 -52 -46 -130v-412h-154v698h145v-102l2 -2q76 123 217 123q248 0 248 -238v-479h-153v438z" />
<glyph unicode="o" horiz-adv-x="801" d="M754 350q0 -166 -92 -264q-94 -97 -261 -97q-166 0 -260 97q-92 98 -92 264q0 164 93 265q94 102 259 102q166 0 259 -102q94 -100 94 -265zM600 350q0 100 -47 168q-56 78 -152 78t-151 -78q-47 -68 -47 -168q0 -99 47 -170q55 -78 151 -78t152 78q47 71 47 170z" />
<glyph unicode="p" horiz-adv-x="825" d="M776 346q0 -151 -74 -252q-80 -105 -227 -105q-164 0 -233 101h-2v-341h-154v949h145v-94h2q62 113 218 113q157 0 245 -109q80 -101 80 -262zM623 348q0 105 -52 175q-51 73 -141 73q-94 0 -145.5 -66.5t-51.5 -181.5q0 -110 52 -174q52 -72 145 -72q97 0 150 78 q43 64 43 168z" />
<glyph unicode="q" horiz-adv-x="825" d="M586 90h-4q-68 -101 -234 -101q-148 0 -227 105q-74 101 -74 252q0 162 82 262q85 109 246 109q153 0 215 -113h4v94h145v-949h-153v341zM590 348q0 248 -195 248q-90 0 -142 -73q-52 -70 -52 -175q0 -102 45 -168q51 -78 149 -78q195 0 195 246z" />
<glyph unicode="r" horiz-adv-x="492" d="M485 565q-92 0 -171 -58q-78 -59 -78 -128v-379h-154v698h154v-86q85 99 225 88l31 -2v-133h-7v0z" />
<glyph unicode="s" horiz-adv-x="702" d="M666 209q0 -118 -103 -176q-86 -44 -211 -44q-137 0 -219 52q-89 63 -90 184h154q10 -123 159 -123q158 0 154 93q-4 65 -121 94q-201 49 -217 55q-115 52 -115 174q0 103 99 156q79 43 194 43q265 0 291 -213h-160q-18 92 -141 92q-127 0 -127 -72q0 -60 117 -88 q198 -49 219 -59q117 -51 117 -168z" />
<glyph unicode="t" horiz-adv-x="489" d="M430 0q-135 0 -219 81t-84 216v287h-117v114h117v211h154v-211h139v-114h-139v-246q0 -207 174 -207h4v-131h-29v0z" />
<glyph unicode="u" horiz-adv-x="776" d="M694 293q0 -302 -307 -302q-305 0 -305 302v405h45q109 0 109 -102v-303q0 -178 155 -178q150 0 150 178v405h153v-405v0z" />
<glyph unicode="v" horiz-adv-x="702" d="M266 0l-254 698h168l176 -536h4l170 536h160l-252 -698h-172z" />
<glyph unicode="w" horiz-adv-x="1051" d="M657 0l-131 518h-2l-129 -518h-162l-215 698h162l137 -522h2l132 522h155l127 -522h2l142 522h157l-219 -698h-158z" />
<glyph unicode="x" horiz-adv-x="725" d="M358 258l-172 -258h-180l262 369l-241 329h186l147 -215l152 215h178l-237 -323l268 -375h-186z" />
<glyph unicode="y" horiz-adv-x="702" d="M172 -267l94 269l-262 696h168l184 -522l179 522h161l-362 -965h-162z" />
<glyph unicode="z" horiz-adv-x="676" d="M31 109l385 469h-359v120h568v-108l-400 -469h420v-121h-614v109z" />
<glyph unicode="{" horiz-adv-x="399" d="M295 -251q-55 0 -109 45q-65 53 -65 139v262q0 50 -38 79t-83 29v123q45 0 82 25q39 25 39 73v279q0 86 65 139q54 45 109 45h123v-121h-74q-76 0 -76 -94v-264q0 -63 -40 -99t-101 -42v-2q141 -15 141 -152v-247q0 -96 76 -96h74v-121h-123v0z" />
<glyph unicode="|" horiz-adv-x="301" d="M82 987h137v-1002h-137v1002z" />
<glyph unicode="}" horiz-adv-x="399" d="M406 303q-48 0 -89 -26q-38 -26 -38 -72v-272q0 -87 -66 -139q-53 -45 -109 -45h-115v121h68q76 0 76 96v255q0 123 139 144v2q-139 12 -139 149v256q0 94 -76 94h-68v121h115q56 0 109 -45q66 -53 66 -139v-268q0 -25 10 -45t27.5 -34.5t40.5 -22t49 -7.5v-123v0z" />
<glyph unicode="~" horiz-adv-x="811" d="M717 344q-80 -117 -168 -117q-51 0 -139 46t-154 46q-62 0 -115 -92l-47 113q60 117 168 117q54 0 150 -43q110 -49 139 -49q48 0 119 92l47 -113v0z" />
<glyph unicode="&#xa4;" horiz-adv-x="840" d="M422 729q-96 0 -160 -67q-65 -73 -65 -160q0 -94 63 -164q65 -68 162 -68q92 0 158 68q63 63 63 164q0 46 -16.5 87t-45.5 72t-70 49.5t-89 18.5zM8 164l148 145q-62 83 -62 193q0 114 62 188l-148 150l76 71l145 -145q79 59 193 59q55 0 105.5 -16t82.5 -43l150 145 l71 -71l-145 -150q59 -79 59 -188q0 -114 -59 -193l145 -145l-71 -76l-150 148q-15 -13 -36 -23.5t-47 -20.5q-53 -18 -105 -18q-110 0 -193 62l-145 -148z" />
<glyph unicode="&#xa9;" horiz-adv-x="1081" d="M1049 485q0 -215 -149 -359t-357 -144q-211 0 -361 144q-149 144 -149 359q0 210 149 356q152 146 361 146q208 0 357 -146t149 -356zM956 485q0 181 -120 304q-118 124 -293 124q-178 0 -298 -124q-120 -123 -120 -304q0 -186 120 -310t298 -124q176 0 294 124 q119 125 119 310zM809 385q-21 -98 -90 -156q-68 -57 -160 -57q-136 0 -218 88q-83 89 -83 223q0 137 80 223q79 85 217 85q98 0 169 -54q71 -53 85 -151h-86q-5 28 -19.5 52.5t-36.5 41.5t-50.5 27t-61.5 10q-96 0 -151 -66q-54 -65 -54 -166q0 -98 57 -168q58 -69 152 -69 q66 0 110 38t54 99h86z" />
<glyph unicode="&#xab;" horiz-adv-x="627" d="M336 442l209 168v-139l-129 -102l129 -105v-139l-209 168v149zM68 442l208 168v-139l-126 -102l126 -105v-139l-208 168v149z" />
<glyph unicode="&#xac;" horiz-adv-x="758" d="M639 119v178h-604v90h686v-268h-82z" />
<glyph unicode="&#xad;" horiz-adv-x="811" d="M66 412h679v-140h-679v140z" />
<glyph unicode="&#xae;" horiz-adv-x="1081" d="M1049 485q0 -215 -149 -359t-357 -144q-211 0 -361 144q-149 144 -149 359q0 210 149 356q152 146 361 146q208 0 357 -146t149 -356zM956 485q0 179 -119 304q-118 124 -294 124q-178 0 -298 -123q-120 -122 -120 -305q0 -186 120 -310t298 -124q176 0 294 124 q119 125 119 310zM535 442h-99v-254h-92v590h229q207 0 207 -168q0 -143 -155 -161l168 -261h-99zM688 614q0 91 -129 91h-123v-189h96q75 0 109 14q47 21 47 84z" />
<glyph unicode="&#xb0;" horiz-adv-x="541" d="M266 915q43 0 80.5 -16t65 -43t43.5 -64t16 -79t-16 -79t-43.5 -64.5t-65 -43.5t-80.5 -16q-41 0 -77 15.5t-63.5 43t-43.5 64.5t-16 80q0 40 15.5 77t42.5 64.5t63.5 44t78.5 16.5zM266 858q-31 0 -57.5 -11t-46 -30.5t-30.5 -46t-11 -57.5q0 -30 11.5 -57t31 -47 t46 -32t56.5 -12q61 0 105 43q45 46 45 105q0 30 -12 56.5t-32.5 46t-47.5 31t-58 11.5z" />
<glyph unicode="&#xb6;" horiz-adv-x="727" d="M629 -244h-62v1356h-145v-1356h-55v805q-168 0 -263 62q-104 74 -104 235q0 153 94 229q90 66 248 66h389v-41h-102v-1356z" />
<glyph unicode="&#xb7;" horiz-adv-x="338" d="M170 520q31 0 51.5 -21.5t20.5 -49.5q0 -31 -21.5 -52.5t-50.5 -21.5q-33 0 -53.5 20.5t-20.5 53.5q0 30 20.5 50.5t53.5 20.5z" />
<glyph unicode="&#xbb;" horiz-adv-x="627" d="M348 264l129 105l-129 102v139l211 -168v-149l-211 -168v139zM82 264l127 105l-127 102v139l209 -168v-149l-209 -168v139z" />
<glyph unicode="&#xd7;" horiz-adv-x="811" d="M403 248l-213 -217l-116 75l235 236l-235 236l116 75l213 -215l218 215l116 -75l-237 -236l237 -236l-116 -75z" />
<glyph unicode="&#xf7;" horiz-adv-x="811" d="M504 621q0 -36 -29 -68q-28 -31 -67 -31q-41 0 -71 30t-30 69q0 38 30 67q32 29 69 29q40 0 69 -29t29 -67zM66 412h679v-140h-679v140zM504 63q0 -35 -29 -64q-28 -28 -67 -28q-21 0 -39 7t-32 19.5t-22 29t-8 36.5q0 39 30 69t69 30q19 0 37 -7.5t31.5 -21t21.5 -31.5 t8 -39z" />
<glyph unicode="&#xe00;" horiz-adv-x="205" />
<glyph unicode="&#xe01;" horiz-adv-x="831" d="M569 0v543q0 143 -155 143q-152 0 -152 -143v-543h-201v561q0 119 84 193q92 82 269 82t272 -82q84 -74 84 -193v-561h-201z" />
<glyph unicode="&#xe02;" horiz-adv-x="786" d="M725 238q0 -113 -86 -182t-248 -69q-80 0 -141.5 17.5t-103.5 50.5t-63.5 79.5t-21.5 103.5v225q0 72 55 109q56 38 56 59q0 55 -88 55h-23v133h150q58 0 104 -26q55 -34 60 -95q6 -90 -54 -145q-59 -56 -59 -98v-191q0 -131 129 -131q133 0 133 131v555h201v-581v0z" />
<glyph unicode="&#xe03;" horiz-adv-x="786" d="M725 238q0 -113 -86 -182t-248 -69q-80 0 -141.5 17.5t-103.5 50.5t-63.5 79.5t-21.5 103.5v221q0 60 58 100q59 41 59 92h-139v168h100l72 -65l63 65h113v-137q0 -92 -63 -143q-62 -50 -62 -101v-174q0 -131 129 -131q133 0 133 131v555h201v-581v0z" />
<glyph unicode="&#xe04;" horiz-adv-x="831" d="M569 0v555q0 131 -155 131q-152 0 -152 -131v-84h172v-178h-172v-293h-201v561q0 119 84 193q92 82 269 82t272 -82q84 -74 84 -193v-561h-201z" />
<glyph unicode="&#xe05;" horiz-adv-x="831" d="M569 0v586q0 61 -45 76l-110 -76l-107 76q-45 -15 -45 -76v-125h172v-174h-172v-287h-201v588q0 97 66 168t170 80l117 -86l121 86q104 -9 169 -80q66 -71 66 -168v-588h-201z" />
<glyph unicode="&#xe06;" horiz-adv-x="831" d="M770 223q0 -106 -70 -169q-69 -63 -184 -63q-158 0 -254 111v-102h-201v459q0 60 58 100q59 41 59 92h-139v168h100l72 -65l63 65h113v-137q0 -92 -63 -143q-62 -50 -62 -101v-114q0 -65 47 -123q55 -66 133 -66q127 0 127 150v534h201v-596v0z" />
<glyph unicode="&#xe07;" horiz-adv-x="809" d="M758 440q0 -440 -291 -440h-317l-130 819h209l105 -669h72q61 0 100 57q51 76 51 229q0 230 -186 230v153h80q156 0 235 -112q72 -101 72 -267z" />
<glyph unicode="&#xe08;" horiz-adv-x="797" d="M748 428q-9 -428 -310 -428h-270l-43 307q-11 80 -62 80h-24v129h170q86 0 98 -84l39 -282h49q64 0 105 65q47 74 47 213q0 258 -170 258q-119 0 -150 -102h-209q13 99 99 170q100 82 264 82q189 0 283 -115q89 -107 84 -293z" />
<glyph unicode="&#xe09;" horiz-adv-x="809" d="M547 0v102q-90 -111 -244 -111q-108 0 -175 63t-67 169v84q0 74 -34 74h-11v127h164q82 0 82 -74v-149q0 -150 115 -150q74 0 125 64q45 57 45 125v200q0 162 -164 162q-61 0 -108 -32t-54 -81h-205q9 112 105 185q103 78 268 78q171 0 268 -80q91 -76 91 -201v-555h-201 z" />
<glyph unicode="&#xe0a;" horiz-adv-x="809" d="M756 297q0 -157 -101 -234q-88 -66 -241 -64l-353 1v819h201v-669h80q205 0 205 169q0 178 -195 189v133q81 1 135 43q60 49 54 135h207q10 -82 -37 -151q-47 -66 -138 -93v-2q75 -24 125 -94q58 -77 58 -182z" />
<glyph unicode="&#xe0b;" horiz-adv-x="815" d="M764 297q0 -156 -100 -234q-88 -66 -240 -64l-350 1v459q0 57 43 100t43 92h-121v168h88l72 -65l63 65h103v-141q0 -77 -46 -120q-45 -44 -45 -93v-315h76q205 0 205 180q0 170 -149 178v133q155 17 143 178h207q10 -84 -35 -152q-44 -66 -127 -92v-2q74 -24 122 -98 t48 -178z" />
<glyph unicode="&#xe0c;" horiz-adv-x="1315" d="M1253 223q0 -106 -67 -169q-66 -63 -174 -63q-152 0 -242 111v-102h-201v555q0 131 -155 131q-121 0 -154 -92l66 -51q-64 -31 -64 -92v-297h103v-154h-304v438q0 80 80 109l-86 59q15 92 97 156q101 74 262 74q181 0 276 -84q80 -74 80 -197v-231q0 -66 45 -123 q49 -66 123 -66q115 0 115 150v534h200v-596v0z" />
<glyph unicode="&#xe0d;" horiz-adv-x="1315" d="M1253 57q0 -139 -65 -212q-80 -86 -268 -86h-351v158h320q164 0 164 108v41q-79 -67 -213 -67q-271 0 -271 237v319q0 131 -155 131q-121 0 -154 -92l66 -51q-64 -31 -64 -92v-297h103v-154h-304v438q0 80 80 109l-86 59q15 92 97 156q101 74 262 74q181 0 276 -84 q80 -74 80 -197v-274q0 -140 139 -140q144 0 144 140v538h200v-762v0z" />
<glyph unicode="&#xe0e;" horiz-adv-x="854" d="M467 -304l-96 65l-95 -65h-192v151h182l105 68l104 -68h117v708q0 131 -156 131q-121 0 -153 -92l65 -51q-63 -32 -63 -92v-451h-269v154h68v284q0 80 80 109l-86 59q13 91 96 156q101 74 262 74q182 0 277 -84q80 -74 80 -197v-859h-326z" />
<glyph unicode="&#xe0f;" horiz-adv-x="854" d="M537 -304l-101 65l-106 -65h-246v215h201v-84l151 90l156 -92v730q0 131 -156 131q-121 0 -153 -92l65 -51q-63 -32 -63 -92v-451h-269v154h68v284q0 80 80 109l-86 59q13 91 96 156q101 74 262 74q182 0 277 -84q80 -74 80 -197v-859h-256z" />
<glyph unicode="&#xe10;" horiz-adv-x="809" d="M791 881q-15 -105 -140 -146q101 -105 97 -307q-9 -428 -310 -428h-270l-43 307q-11 80 -62 80h-24v129h170q86 0 98 -84l39 -282h49q64 0 105 65q47 74 47 213q0 258 -170 258q-119 0 -150 -102h-209q13 99 99 170q100 82 264 82q77 0 137 -19q31 22 39 64h234z M444 -304l-94 65l-96 -65h-193v151h183l106 68l99 -68h75v86h201v-237h-281z" />
<glyph unicode="&#xe11;" horiz-adv-x="842" d="M580 0v631l-291 -631h-215v465q0 53 47 95t47 91h-127v168h84l72 -65l63 65h115v-137q0 -68 -51 -117q-50 -50 -50 -94v-59q0 -27 -3.5 -70.5t-10.5 -103.5h4q6 26 18 65.5t31 91.5l201 424h133q133 0 133 -147v-672h-200z" />
<glyph unicode="&#xe12;" horiz-adv-x="1348" d="M1286 223q0 -106 -67 -169q-66 -63 -175 -63q-153 0 -243 111v-102h-201v633l-125 -109l-141 113q-30 -14 -55 -66q-37 -70 -37 -170q0 -229 172 -229q25 0 45 4v-176q-23 -2 -45.5 -3.5t-44.5 -1.5q-164 0 -252 120q-78 109 -78 286q0 184 98 308q88 112 209 122 l129 -98l98 86h228v-495q0 -66 45 -123q51 -66 125 -66q114 0 114 150v534h201v-596v0z" />
<glyph unicode="&#xe13;" horiz-adv-x="1315" d="M1053 0v102q-90 -111 -242 -111q-109 0 -176 63q-66 63 -66 169v332q0 131 -155 131q-121 0 -154 -92l66 -51q-64 -31 -64 -92v-297h103v-154h-304v438q0 80 80 109l-86 59q15 92 97 156q101 74 262 74q181 0 276 -84q80 -74 80 -197v-270q0 -150 115 -150q73 0 125 64 q43 56 43 125v495h200v-819h-200z" />
<glyph unicode="&#xe14;" horiz-adv-x="842" d="M580 0v659l-121 3q-93 2 -152 -62q-65 -71 -65 -199q0 -229 172 -229q25 0 45 4v-176q-25 -2 -47.5 -3.5t-44.5 -1.5q-167 0 -252 120q-76 107 -76 286q0 187 98 303q99 117 264 117l379 -2v-819h-200z" />
<glyph unicode="&#xe15;" horiz-adv-x="862" d="M600 0v633l-125 -109l-141 113q-30 -14 -55 -66q-37 -70 -37 -170q0 -229 172 -229q25 0 45 4v-176q-23 -2 -45.5 -3.5t-44.5 -1.5q-164 0 -252 120q-78 109 -78 286q0 184 98 308q88 112 209 122l129 -98l98 86h228v-819h-201z" />
<glyph unicode="&#xe16;" horiz-adv-x="831" d="M569 0v555q0 131 -155 131q-121 0 -154 -92l66 -51q-64 -31 -64 -92v-297h103v-154h-304v438q0 80 80 109l-86 59q15 92 97 156q101 74 262 74q181 0 276 -84q80 -74 80 -197v-555h-201z" />
<glyph unicode="&#xe17;" horiz-adv-x="831" d="M569 0v532q0 150 -127 150q-78 0 -133 -66q-47 -58 -47 -122v-494h-201v819h201v-104q96 114 254 114q114 0 184 -65q70 -64 70 -170v-594h-201z" />
<glyph unicode="&#xe18;" horiz-adv-x="819" d="M561 573q-6 52 -55 82q-49 31 -117 31q-30 0 -56 -7t-45 -18.5t-29.5 -27t-10.5 -33.5q0 -39 133 -57q179 -25 244 -54q133 -57 133 -194v-295h-697v348h201v-198h295v108q0 84 -133 111q-61 11 -121.5 21.5t-122.5 21.5q-133 43 -133 170q0 110 96 182q97 72 263 72 q165 0 262 -76q87 -70 98 -187h-205z" />
<glyph unicode="&#xe19;" horiz-adv-x="831" d="M569 0v104q-96 -111 -254 -111q-114 0 -184 63t-70 169v594h86q115 0 115 -117v-415q0 -150 127 -150q77 0 133 66q47 58 47 123v493h201v-819h-201z" />
<glyph unicode="&#xe1a;" horiz-adv-x="831" d="M770 258q0 -119 -84 -192q-95 -79 -272 -79t-269 79q-84 73 -84 192v561h86q115 0 115 -117v-426q0 -143 152 -143q155 0 155 143v543h201v-561v0z" />
<glyph unicode="&#xe1b;" horiz-adv-x="831" d="M770 258q0 -119 -84 -192q-95 -79 -272 -79t-269 79q-84 73 -84 192v561h86q115 0 115 -117v-426q0 -143 152 -143q155 0 155 143v748h201v-766v0z" />
<glyph unicode="&#xe1c;" horiz-adv-x="1004" d="M864 0h-213l-145 557h-4l-146 -557h-215l-127 819h283v-139h-70l54 -385h4l143 524h152l145 -524h4l74 524h186z" />
<glyph unicode="&#xe1d;" horiz-adv-x="1004" d="M864 0h-213l-145 557h-4l-146 -557h-215l-127 819h283v-139h-70l54 -385h4l143 524h152l145 -524h4l105 729h186z" />
<glyph unicode="&#xe1e;" horiz-adv-x="1004" d="M864 0h-213l-145 557h-4l-146 -557h-215l-127 819h193l74 -524h4l143 524h152l145 -524h4l72 524h188z" />
<glyph unicode="&#xe1f;" horiz-adv-x="1004" d="M864 0h-213l-145 557h-4l-146 -557h-215l-127 819h193l74 -524h4l143 524h152l145 -524h4l102 729h189z" />
<glyph unicode="&#xe20;" horiz-adv-x="854" d="M592 0v555q0 131 -156 131q-121 0 -153 -92l65 -51q-63 -32 -63 -92v-451h-269v154h68v284q0 80 80 109l-86 59q13 91 96 156q101 74 262 74q182 0 277 -84q80 -74 80 -197v-555h-201z" />
<glyph unicode="&#xe21;" horiz-adv-x="831" d="M770 225q0 -106 -70 -169q-69 -63 -184 -63q-158 0 -254 111v-104h-201v819h86q115 0 115 -117v-376q0 -65 47 -123q55 -66 133 -66q127 0 127 150v532h201v-594v0z" />
<glyph unicode="&#xe22;" horiz-adv-x="831" d="M334 -1q-295 -1 -295 224q0 88 55 152q46 51 111 69v2q-56 10 -96 54q-48 51 -48 125q0 88 64 143q63 55 176 53l131 -2v-151q-164 6 -164 -78q0 -88 164 -76v-141q-73 6 -126 -25q-54 -32 -54 -88q0 -117 178 -110l139 4v665h201v-819z" />
<glyph unicode="&#xe23;" horiz-adv-x="795" d="M555 573q-5 49 -49 80q-45 33 -113 33q-30 0 -56.5 -7t-45.5 -19t-30 -28t-11 -34q0 -53 131 -76q185 -30 242 -59q131 -62 131 -215q0 -261 -363 -261q-171 0 -262.5 72.5t-91.5 204.5h205q0 -65 53 -100q46 -31 115 -31q30 0 56.5 7.5t45.5 20t30 29.5t11 35 q0 78 -131 107q-115 23 -175 36.5t-67 16.5q-131 53 -131 197q0 110 96 182q97 72 254 72q169 0 267 -78q90 -72 90 -185h-201z" />
<glyph unicode="&#xe24;" horiz-adv-x="831" d="M569 -243v798q0 131 -155 131q-121 0 -154 -92l66 -51q-64 -31 -64 -92v-297h103v-154h-304v438q0 80 80 109l-86 59q15 92 97 156q101 74 262 74q181 0 276 -84q80 -74 80 -197v-798h-201z" />
<glyph unicode="&#xe25;" horiz-adv-x="823" d="M561 0v334q-8 20 -47 41q-50 26 -113 26q-71 0 -117 -37q-46 -36 -46 -92q0 -30 10.5 -52.5t28 -37.5t41.5 -22.5t51 -7.5q31 0 63 12v-162q-28 -4 -53.5 -5.5t-50.5 -1.5q-141 0 -217 81q-72 78 -72 198q0 124 82 207q91 90 248 90q134 0 192 -49v43q0 52 -44 87 q-43 34 -107 34q-130 0 -158 -102h-205q12 100 100 172q104 80 259 80q88 0 154.5 -18.5t111.5 -53t67.5 -83t22.5 -108.5v-573h-201z" />
<glyph unicode="&#xe26;" horiz-adv-x="854" d="M592 -243v798q0 131 -156 131q-121 0 -153 -92l65 -51q-63 -32 -63 -92v-451h-269v154h68v284q0 80 80 109l-86 59q13 91 96 156q101 74 262 74q182 0 277 -84q80 -74 80 -197v-798h-201z" />
<glyph unicode="&#xe27;" horiz-adv-x="799" d="M754 410q0 -423 -367 -423q-162 0 -256 81q-87 76 -92 200h209q10 -121 135 -121q160 0 160 263q0 262 -160 262q-125 0 -135 -121h-209q5 124 95 204q91 81 253 81q367 0 367 -426z" />
<glyph unicode="&#xe28;" horiz-adv-x="831" d="M831 881q-14 -101 -131 -142q70 -70 70 -178v-561h-201v555q0 131 -155 131q-152 0 -152 -131v-84h172v-178h-172v-293h-201v561q0 119 84 193q92 82 269 82q77 0 143 -17q35 23 41 62h233v0z" />
<glyph unicode="&#xe29;" horiz-adv-x="831" d="M770 258q0 -119 -84 -192q-95 -79 -272 -79t-269 79q-84 73 -84 192v561h201v-543q0 -143 152 -143q155 0 155 143v146q-30 -88 -125 -88q-53 0 -93 40t-40 93t40 93t93 40q95 0 125 -88v307h201v-561v0z" />
<glyph unicode="&#xe2a;" horiz-adv-x="823" d="M823 881q-13 -104 -123 -142q62 -68 62 -166v-573h-201v334q-8 20 -47 41q-50 26 -113 26q-71 0 -117 -37q-46 -36 -46 -92q0 -30 10.5 -52.5t28 -37.5t41.5 -22.5t51 -7.5q31 0 63 12v-162q-28 -4 -53.5 -5.5t-50.5 -1.5q-141 0 -217 81q-72 78 -72 198q0 124 82 207 q91 90 248 90q134 0 192 -49v43q0 52 -44 87q-43 34 -107 34q-130 0 -158 -102h-205q12 100 100 172q104 80 259 80q89 0 155 -19q29 23 29 64h233v0z" />
<glyph unicode="&#xe2b;" horiz-adv-x="831" d="M569 0v373q0 139 -118 139q-70 0 -130 -62q-59 -62 -59 -122v-328h-201v819h201v-270q88 94 213 117h-86v153h381v-153h-164q164 -39 164 -242v-424h-201z" />
<glyph unicode="&#xe2c;" horiz-adv-x="1004" d="M1016 971q-21 -131 -131 -148v-2q102 -35 84 -149l-105 -672h-213l-145 557h-4l-146 -557h-215l-127 819h191l76 -524h4l143 524h152l145 -524h4l49 348q1 10 1.5 18.5t0.5 16.5q0 90 -75 96v105q70 1 97 28t36 86l4 31h182z" />
<glyph unicode="&#xe2d;" horiz-adv-x="903" d="M860 410q0 -192 -113 -308q-112 -115 -298 -115q-187 0 -302 120q-114 120 -114 325q0 17 1 35t3 37h391v-160h-170q-2 -86 54 -144q57 -57 134 -57q88 0 147 69q58 68 58 198q0 132 -65 200q-59 60 -144 60q-66 0 -118 -39q-53 -39 -66 -88l-190 53q35 105 136 172 q104 68 245 68q185 0 298 -117q113 -118 113 -309z" />
<glyph unicode="&#xe2e;" horiz-adv-x="903" d="M860 410q0 -192 -113 -308q-112 -115 -298 -115q-187 0 -302 120q-114 120 -114 325q0 17 1 35t3 37h391v-160h-170q-2 -86 54 -144q57 -57 134 -57q88 0 147 69q58 68 58 198q0 132 -65 200q-59 60 -144 60q-66 0 -118 -39q-53 -39 -66 -88l-190 53q35 105 136 172 q104 68 245 68q77 0 139 -21q32 22 37 66h233q-13 -109 -131 -142q133 -115 133 -329z" />
<glyph unicode="&#xe2f;" horiz-adv-x="774" d="M512 0v578q-29 -36 -88 -64q-74 -33 -156 -33q-51 0 -93 12.5t-72.5 37t-47 59.5t-16.5 80q0 65 49 110t125 45q49 0 92 -8v-115q-69 10 -69 -34q0 -43 79 -43q75 0 136 53q61 52 61 141h201v-819h-201z" />
<glyph unicode="&#xe30;" horiz-adv-x="494" d="M61 489v228h201v-84h170v-144h-371zM61 102v228h201v-84h170v-144h-371z" />
<glyph unicode="&#xe31;" d="M-457 922v225h201v-92h440v-133h-641z" />
<glyph unicode="&#xe32;" horiz-adv-x="553" d="M291 0v463q0 176 -170 176h-101v180h138q164 0 254 -98q80 -91 80 -238v-483h-201z" />
<glyph unicode="&#xe33;" horiz-adv-x="512" d="M-21 1038q0 -53 -39 -90q-40 -37 -98 -37q-57 0 -97 37t-40 90q0 54 40 90q40 37 97 37q58 0 98 -37q39 -36 39 -90zM270 0v463q0 176 -170 176h-100v180h137q164 0 254 -98q80 -91 80 -238v-483h-201z" />
<glyph unicode="&#xe34;" d="M-57 1001q0 -79 -91 -79h-598v133h689v-54v0z" />
<glyph unicode="&#xe35;" d="M-746 922v133h488v92h201v-225h-689z" />
<glyph unicode="&#xe36;" d="M-23 1038q0 -49 -35.5 -82.5t-99.5 -33.5h-588v133h453q13 100 135 100q64 0 99.5 -34t35.5 -83z" />
<glyph unicode="&#xe37;" d="M-746 922v133h291v92h135v-92h62v92h201v-225h-689z" />
<glyph unicode="&#xe38;" d="M-258 -324v129h-80v138h281v-267h-201z" />
<glyph unicode="&#xe39;" d="M-57 -160q0 -174 -250 -174q-256 0 -256 160h-43v117h235v-103q0 -53 56 -53q57 0 57 53v103h201v-103v0z" />
<glyph unicode="&#xe3a;" d="M-31 -174q0 -24 -9.5 -45.5t-26 -37.5t-40 -25t-51.5 -9q-27 0 -50.5 9t-40.5 25t-26.5 37.5t-9.5 45.5t9.5 45.5t26.5 37.5t40.5 25t50.5 9q28 0 51.5 -9t40 -25t26 -37.5t9.5 -45.5z" />
<glyph unicode="&#xe3f;" horiz-adv-x="952" d="M901 268q0 -121 -84 -190q-92 -78 -270 -78h-41v-125h-57v125h-347v965h347v129h57v-129h65q287 0 287 -240q0 -143 -137 -205v-2q180 -41 180 -250zM690 694q0 133 -143 133h-41v-266h41q63 0 103 35t40 98zM272 827v-266h177v266h-177zM733 291q0 147 -162 147h-65 v-301h65q162 0 162 154zM272 438v-301h177v301h-177z" />
<glyph unicode="&#xe40;" horiz-adv-x="406" d="M102 0v819h201v-819h-201z" />
<glyph unicode="&#xe41;" horiz-adv-x="709" d="M406 0v819h200v-819h-200zM102 0v819h201v-819h-201z" />
<glyph unicode="&#xe42;" horiz-adv-x="446" d="M588 1098q-54 -17 -119 -17q-17 0 -39 2t-51 6q-57 9 -74 9q-41 0 -41 -27q0 -15 30 -52q30 -38 30 -75v-944h-201v930q0 42 -38 88t-38 84q0 72 49.5 115t139.5 43q47 0 110 -16q66 -15 107 -15q81 0 135 16v-147v0z" />
<glyph unicode="&#xe43;" horiz-adv-x="446" d="M418 1124q4 -73 -45 -127q-49 -52 -49 -94v-903h-201v915q0 59 51 103q51 43 51 76q0 49 -71 49h-7q-19 0 -35 -6.5t-27.5 -17t-17 -25t-4.5 -29.5q0 -13 3 -23h-167q-2 13 -2.5 29.5t0.5 36.5q10 162 232 162h57q226 0 232 -146z" />
<glyph unicode="&#xe44;" horiz-adv-x="446" d="M399 1102q0 -38 -38 -84q-37 -44 -37 -88v-930h-201v946q0 36 29 70q30 33 30 55q0 29 -49 29q-8 0 -25.5 -1.5t-44.5 -3.5q-26 -2 -47 -3.5t-35 -1.5q-68 0 -119 16v147q54 -16 135 -16q20 0 45 3t55 8q61 12 100 12q202 0 202 -158z" />
<glyph unicode="&#xe45;" horiz-adv-x="553" d="M291 -242v705q0 176 -170 176h-101v180h138q164 0 254 -98q80 -91 80 -238v-725h-201z" />
<glyph unicode="&#xe46;" horiz-adv-x="799" d="M537 -242v904l-127 -119l-115 96q-51 0 -51 -57q0 -66 84 -52v-151l-27 -2q-260 -21 -260 209q0 233 225 233h29l121 -96l112 96h209v-1061h-200z" />
<glyph unicode="&#xe47;" d="M-272 922l-88 59l-93 -59h-239v110q0 176 223 176h342v-94h-283q-90 0 -90 -61v-25h35l105 62l104 -62h129v-106h-145z" />
<glyph unicode="&#xe48;" d="M-258 1198v184h201v-184h-201z" />
<glyph unicode="&#xe49;" d="M-354 1198v49q0 43 -41 43h-21v111h142q122 0 122 -82v-10h211v-111h-413z" />
<glyph unicode="&#xe4a;" d="M-133 1198v92l-74 -53l-74 53v-92h-172v74q0 127 148 127h24l74 -51l72 51h26q146 0 146 -94v-11h82v-96h-252z" />
<glyph unicode="&#xe4b;" d="M-68 1264v-66h-180v66h-74v92h74v65h180v-65h70v-92h-70z" />
<glyph unicode="&#xe4c;" d="M-59 1200q-64 0 -64 -53v-21h-203v52q0 76 56 108q46 25 153 25h96v-111h-38z" />
<glyph unicode="&#xe4d;" d="M-21 1038q0 -53 -39 -90q-40 -37 -98 -37q-57 0 -97 37t-40 90q0 54 40 90q40 37 97 37q58 0 98 -37q39 -36 39 -90z" />
<glyph unicode="&#xe4e;" d="M80 1438q-26 2 -46 3t-34 1q-44 0 -82.5 -5t-67 -15.5t-45.5 -26.5t-17 -37q0 -29 29 -35t92 -6v-94q-20 2 -35.5 3t-28.5 1q-40 0 -74 -6t-59.5 -16.5t-40 -26t-14.5 -33.5q0 -29 49 -29q31 0 58.5 9.5t58.5 23.5l49 -82q-35 -19 -80 -33t-90 -14q-6 2 -9 2h-7h-11 q-57 6 -92 36t-35 75q0 42 24 75.5t66 53.5q34 21 82 24q-43 21 -43 74q0 21 9.5 42.5t26.5 41t40.5 35.5t50.5 26q54 23 118 28t133 5h25v-100v0z" />
<glyph unicode="&#xe4f;" horiz-adv-x="983" d="M911 410q0 -174 -123 -295q-121 -121 -296 -121q-176 0 -298 121q-122 122 -122 295q0 174 122 296q123 123 298 123q174 0 296 -123q123 -122 123 -296zM850 410q0 147 -106 252q-105 106 -252 106q-148 0 -254 -106q-105 -105 -105 -252q0 -148 105 -254 q106 -105 254 -105q147 0 252 105q106 106 106 254zM748 410q0 -107 -75 -182q-76 -74 -181 -74q-106 0 -182 74q-74 76 -74 182q0 105 74 181q75 75 182 75q106 0 181 -75t75 -181z" />
<glyph unicode="&#xe50;" horiz-adv-x="815" d="M774 307q0 -140 -90 -225q-100 -88 -276 -88q-178 0 -275 88q-90 85 -90 225q0 142 90 225q96 93 275 93q178 0 276 -93q90 -86 90 -225zM567 307q0 70 -42 113t-117 43q-76 0 -117 -43t-41 -113q0 -67 41.5 -111t116.5 -44q36 0 65.5 11.5t50.5 32.5t32 49.5t11 61.5z " />
<glyph unicode="&#xe51;" horiz-adv-x="815" d="M772 303q-5 -150 -121 -232q-116 -83 -309 -87q-131 -2 -236 18l-47 158q141 -43 260 -37q118 6 182 57q66 51 66 123q1 156 -174 156q-30 0 -56.5 -5.5t-45.5 -16t-30 -25.5t-11 -33q0 -53 74 -53q30 0 69 12l-6 -158l-33 -6q-46 -8 -84 -8q-102 0 -161 53 q-66 55 -66 162q0 115 104 180q97 64 252 64q93 0 164 -22t118 -64t70 -101.5t21 -134.5z" />
<glyph unicode="&#xe52;" horiz-adv-x="1059" d="M66 0v598q0 84 -70 145l170 86q98 -57 98 -159v-520h531v313l-101 -92l-106 92q-70 0 -68 -80q1 -70 105 -61v-132l-41 -4q-17 -2 -33.5 -3t-30.5 -1q-102 0 -148 46t-50 147q-9 243 210 243h66l96 -83l88 83h209v-618h-925z" />
<glyph unicode="&#xe53;" horiz-adv-x="831" d="M561 0v446l-115 -94l-129 99q-59 -5 -59 -152q0 -154 131 -143v-156h-59q-164 -12 -232 74q-55 68 -55 223q0 317 231 317h58l112 -82l101 82h219v-614h-203z" />
<glyph unicode="&#xe54;" horiz-adv-x="860" d="M469 451q-219 0 -219 -152q0 -76 49 -109q42 -27 145 -32q-55 39 -55 102q0 50 41 88q40 37 98 37q61 0 101 -37q41 -38 41 -88q0 -65 -58 -102h185v-158h-414q-340 0 -340 293q0 147 96 231q97 84 269 84h204v211h203v-368h-346z" />
<glyph unicode="&#xe55;" horiz-adv-x="883" d="M469 451q-219 0 -219 -152q0 -76 49 -109q42 -27 145 -32q-55 39 -55 102q0 50 41 88q40 37 98 37q61 0 101 -37q41 -38 41 -88q0 -65 -58 -102h185v-158h-414q-340 0 -340 293q0 126 72 206.5t207 102.5q-46 31 -46 88q0 49 43 85t111 36t112 -36t44 -85q0 -48 -39 -82 h88v211h203v-368h-369z" />
<glyph unicode="&#xe56;" horiz-adv-x="815" d="M774 305q0 -311 -364 -311q-330 0 -342 252h202q14 -107 146 -107q151 0 151 166q0 158 -155 160q-90 2 -142 -59h-204v190q0 86 -70 147l170 86q98 -57 98 -159v-131q70 79 195 79q315 0 315 -313z" />
<glyph unicode="&#xe57;" horiz-adv-x="1106" d="M1114 743q-72 -56 -72 -137v-383q0 -223 -262 -223h-219v449l-115 -97l-129 101q-59 -5 -59 -152q0 -156 131 -145v-156h-59q-164 -12 -232 74q-55 70 -55 225q0 317 231 317h58l112 -84l101 84h219v-458q84 1 84 100v389q0 125 102 182l164 -86v0z" />
<glyph unicode="&#xe58;" horiz-adv-x="831" d="M545 0l-121 104l-102 -104h-70q-87 0 -146 74q-63 84 -63 231q0 303 322 303h196v211h203v-368h-340q-174 0 -174 -146q0 -106 59 -123l117 105l135 -107v127h203v-307h-219z" />
<glyph unicode="&#xe59;" horiz-adv-x="932" d="M963 739q-72 -45 -72 -129v-161h-182q-80 0 -80 -130q0 -39 12 -67l111 -252h-205l-189 449q-108 0 -108 -146q0 -92 31 -123q32 -30 108 -26v-154h-59q-166 -12 -234 74q-53 70 -53 227q0 307 274 307h175l40 -92l7 14q31 78 123 78h24v68q0 118 113 153l164 -90v0z" />
<glyph unicode="&#xe5a;" horiz-adv-x="1036" d="M702 0h-118v616q-26 -23 -59.5 -43.5t-71.5 -37.5q-81 -29 -162 -29q-49 0 -91 13t-73 37t-48.5 57.5t-17.5 74.5q0 28 11.5 53.5t32 45t48.5 31t62 11.5q69 0 111.5 -37.5t42.5 -103.5q0 -39 -23 -74q44 6 83 23t70 43.5t52.5 61.5t30.5 77h51q35 0 51 -16 q18 -12 18 -51v-752zM279 688q0 25 -17.5 43.5t-46.5 18.5q-63 0 -63 -62q0 -29 15.5 -42.5t47.5 -18.5q64 0 64 61zM924 0h-119v819h119v-819z" />
<glyph unicode="&#xe5b;" horiz-adv-x="1393" d="M1368 434q0 -12 -17.5 -23.5t-37.5 -13.5l-103 -10q-6 -20 -19 -38.5t-30 -18.5q-15 0 -31 22q-5 5 -11 17t-17 30q-11 -37 -27 -64.5t-33 -27.5q-14 0 -31 28.5t-40 76.5q-8 -29 -15 -50.5t-12 -33.5q-18 -41 -39 -41q-19 0 -47 63q-8 17 -14.5 35t-14.5 35 q-6 -28 -16 -56t-22 -50.5t-24 -37t-22 -14.5q-34 0 -45 35q-5 19 -6.5 31.5t-3.5 23.5q-3 22 -18 62q-17 -69 -45.5 -128t-65.5 -98q-100 -112 -227 -112q-62 0 -112 24.5t-86 68.5t-55.5 106.5t-19.5 138.5q0 149 70 243q35 51 80.5 75t99.5 24q43 0 82 -18.5t68 -52 t46 -79.5t17 -100q0 -44 -10 -79t-28.5 -60t-43.5 -38.5t-55 -13.5q-24 0 -46.5 10.5t-39.5 28.5t-27 42.5t-10 52.5q0 27 10 51t27 43t38.5 30t45.5 11l21 -2q-35 80 -93 80q-32 0 -59.5 -19t-47.5 -53t-32 -81t-12 -103t13.5 -100t37.5 -74.5t57.5 -47t73.5 -16.5 q47 0 88.5 24.5t74.5 69.5t57 109.5t36 144.5q8 50 19.5 66t37.5 16q10 0 22.5 -12t25.5 -32t26 -47t25 -58l12 73q15 58 41 58q19 0 45.5 -32.5t46.5 -86.5q16 82 45 82q23 0 46.5 -29.5t47.5 -77.5q13 38 24.5 58t31.5 20q14 0 30.5 -18.5t30.5 -44.5q16 33 47 28l111 -14 q18 0 35.5 -10t17.5 -21zM434 449q0 61 -49 61q-19 0 -34 -17.5t-15 -43.5t14.5 -43t34.5 -17q49 0 49 60z" />
<glyph unicode="&#x2000;" horiz-adv-x="799" />
<glyph unicode="&#x2001;" horiz-adv-x="1599" />
<glyph unicode="&#x2002;" horiz-adv-x="799" />
<glyph unicode="&#x2003;" horiz-adv-x="1599" />
<glyph unicode="&#x2004;" horiz-adv-x="533" />
<glyph unicode="&#x2005;" horiz-adv-x="399" />
<glyph unicode="&#x2006;" horiz-adv-x="266" />
<glyph unicode="&#x2007;" horiz-adv-x="266" />
<glyph unicode="&#x2008;" horiz-adv-x="199" />
<glyph unicode="&#x2009;" horiz-adv-x="319" />
<glyph unicode="&#x200a;" horiz-adv-x="88" />
<glyph unicode="&#x200c;" />
<glyph unicode="&#x200d;" />
<glyph unicode="&#x2010;" horiz-adv-x="526" d="M66 440h393v-145h-393v145z" />
<glyph unicode="&#x2011;" horiz-adv-x="526" d="M66 440h393v-145h-393v145z" />
<glyph unicode="&#x2012;" horiz-adv-x="526" d="M66 440h393v-145h-393v145z" />
<glyph unicode="&#x2013;" horiz-adv-x="811" d="M66 268v146h682v-146h-682z" />
<glyph unicode="&#x2014;" horiz-adv-x="1622" d="M66 268v146h1490v-146h-1490z" />
<glyph unicode="&#x2018;" horiz-adv-x="375" d="M92 530v207q0 90 54 153q56 65 139 75v-88q-90 -33 -90 -138h90v-209h-193z" />
<glyph unicode="&#x2019;" horiz-adv-x="375" d="M285 758q0 -88 -55 -152q-54 -62 -138 -76v91q88 28 88 137h-88v207h193v-207v0z" />
<glyph unicode="&#x201c;" horiz-adv-x="627" d="M360 530v207q0 90 54 153q56 65 139 75v-88q-90 -33 -90 -138h90v-209h-193zM74 530v207q0 89 53 153q52 64 137 75v-88q-88 -33 -88 -138h88v-209h-190z" />
<glyph unicode="&#x201d;" horiz-adv-x="627" d="M553 758q0 -88 -55 -152q-54 -62 -138 -76v91q91 28 91 137h-91v207h193v-207zM264 758q0 -87 -53 -152q-52 -62 -137 -76v91q88 28 88 137h-88v207h190v-207z" />
<glyph unicode="&#x2022;" horiz-adv-x="758" d="M686 410q0 -127 -90 -218q-90 -90 -217 -90t-217 90q-90 91 -90 218t90 217t217 90t217 -90t90 -217z" />
<glyph unicode="&#x2026;" horiz-adv-x="1352" d="M1020 0v209h211v-209h-211zM569 0v209h211v-209h-211zM119 0v209h213v-209h-213z" />
<glyph unicode="&#x202f;" horiz-adv-x="319" />
<glyph unicode="&#x205f;" horiz-adv-x="399" />
<glyph unicode="&#x25fc;" horiz-adv-x="700" d="M0 700h700v-700h-700v700z" />
<glyph unicode="&#xf700;" horiz-adv-x="809" d="M791 881q-15 -105 -140 -146q101 -105 97 -307q-9 -428 -310 -428h-270l-43 307q-11 80 -62 80h-24v129h170q86 0 98 -84l39 -282h49q64 0 105 65q47 74 47 213q0 258 -170 258q-119 0 -150 -102h-209q13 99 99 170q100 82 264 82q77 0 137 -19q31 22 39 64h234v0z" />
<glyph unicode="&#xf701;" d="M-340 1001q0 -79 -90 -79h-475v133h565v-54v0z" />
<glyph unicode="&#xf702;" d="M-905 922v133h364v92h201v-225h-565z" />
<glyph unicode="&#xf703;" d="M-305 1038q0 -49 -36 -82.5t-99 -33.5h-465v133h329q15 100 136 100q63 0 99 -34t36 -83z" />
<glyph unicode="&#xf704;" d="M-905 922v133h168v92h135v-92h61v92h201v-225h-565z" />
<glyph unicode="&#xf705;" d="M-533 922v245h201v-245h-201z" />
<glyph unicode="&#xf706;" d="M-506 922v79q0 43 -41 43h-18v123h135q125 0 125 -98v-14h305v-133h-506z" />
<glyph unicode="&#xf707;" d="M-379 922v94q0 15 -12 26l-88 -71l-101 71q-12 -11 -12 -24v-96h-170v110q0 135 154 135h49l80 -53l73 53h50q149 0 149 -123v-12h207v-110h-379z" />
<glyph unicode="&#xf708;" d="M-410 1008v-86h-180v86h-102v125h102v86h180v-86h103v-125h-103z" />
<glyph unicode="&#xf709;" d="M-369 995q-57 0 -57 -49v-24h-201v63q0 143 162 143h162v-133h-66z" />
<glyph unicode="&#xf70a;" d="M-258 922v245h201v-245h-201z" />
<glyph unicode="&#xf70b;" d="M-387 922v79q0 43 -41 43h-19v123h136q125 0 125 -98v-14h268v-133h-469z" />
<glyph unicode="&#xf70c;" d="M-285 922v94q0 15 -12 26l-88 -71l-100 71q-13 -10 -13 -24v-96h-170v110q0 135 154 135h49l80 -53l74 53h49q149 0 149 -123v-12h113v-110h-285z" />
<glyph unicode="&#xf70d;" d="M-160 1008v-86h-180v86h-102v125h102v86h180v-86h103v-125h-103z" />
<glyph unicode="&#xf70e;" d="M-76 995q-57 0 -57 -49v-24h-201v63q0 143 162 143h162v-133h-66z" />
<glyph unicode="&#xf70f;" horiz-adv-x="1315" d="M1253 258q0 -118 -77 -192q-92 -78 -267 -78q-174 0 -262 78q-78 73 -78 192v297q0 131 -155 131q-121 0 -154 -92l66 -51q-64 -31 -64 -92v-297h103v-154h-304v438q0 80 80 109l-86 59q15 92 97 156q101 74 262 74q181 0 276 -84q80 -74 80 -197v-289q0 -133 139 -133 q144 0 144 133v553h200v-561v0z" />
<glyph unicode="&#xf710;" d="M-719 922v225h201v-92h518v-133h-719z" />
<glyph unicode="&#xf711;" d="M-287 1038q0 -53 -40 -90t-97 -37t-97 37t-40 90q0 54 40 90q40 37 97 37t97 -37q40 -36 40 -90z" />
<glyph unicode="&#xf712;" d="M-457 922l-88 59l-92 -59h-240v110q0 176 224 176h342v-94h-283q-90 0 -90 -61v-25h35l104 62l105 -62h129v-106h-146z" />
<glyph unicode="&#xf713;" d="M-541 1198v184h201v-184h-201z" />
<glyph unicode="&#xf714;" d="M-637 1198v49q0 43 -41 43h-20v111h141q123 0 123 -82v-10h215v-111h-418z" />
<glyph unicode="&#xf715;" d="M-406 1198v92l-73 -53l-74 53v-92h-172v74q0 127 147 127h25l74 -51l71 51h27q150 0 150 -94v-11h81v-96h-256z" />
<glyph unicode="&#xf716;" d="M-350 1264v-66h-180v66h-74v92h74v65h180v-65h73v-92h-73z" />
<glyph unicode="&#xf717;" d="M-336 1200q-63 0 -63 -53v-21h-203v52q0 77 55 108q46 25 154 25h96v-111h-39z" />
<glyph unicode="&#xf718;" d="M-258 -610v129h-80v137h281v-266h-201z" />
<glyph unicode="&#xf719;" d="M-57 -447q0 -174 -250 -174q-256 0 -256 160h-43v117h235v-103q0 -53 56 -53q57 0 57 53v103h201v-103v0z" />
<glyph unicode="&#xf71a;" d="M-57 -461q0 -24 -9.5 -45.5t-26.5 -37.5t-40.5 -25t-50.5 -9q-28 0 -51.5 9t-40 25t-26 37.5t-9.5 45.5t9.5 45.5t26 37.5t40 25t51.5 9q27 0 50.5 -9t40.5 -25t26.5 -37.5t9.5 -45.5z" />
<glyph unicode="&#xf71b;" d="M0 -2h-477v1210h477v-1210z" />
<glyph unicode="&#xf71c;" d="M-340 1001q0 -79 -90 -79h-475v133h565v-54v0z" />
<glyph unicode="&#xf71d;" d="M-905 922v133h364v92h201v-225h-565z" />
<glyph horiz-adv-x="553" d="M291 0v463q0 176 -170 176h-101v180h138q164 0 254 -98q80 -91 80 -238v-483h-201zM-287 1038q0 -53 -40 -90t-97 -37t-97 37t-40 90q0 54 40 90q40 37 97 37t97 -37q40 -36 40 -90z" />
<glyph d="M-100 1438q-26 2 -46 3t-34 1q-44 0 -82.5 -5t-67 -15.5t-45.5 -26.5t-17 -37q0 -29 29 -35t92 -6v-94q-20 2 -35.5 3t-28.5 1q-40 0 -74 -6t-59.5 -16.5t-40 -26t-14.5 -33.5q0 -29 49 -29q31 0 58.5 9.5t58.5 23.5l49 -82q-35 -19 -80 -33t-90 -14q-6 2 -9 2h-7h-11 q-57 6 -92 36t-35 75q0 42 24 75.5t66 53.5q34 21 82 24q-43 21 -43 74q0 21 9.5 42.5t26.5 41t40.5 35.5t50.5 26q54 23 118 28t133 5h25v-100v0z" />
</font>
</defs>
</svg>
